<svg xmlns="http://www.w3.org/2000/svg" width="90" fill="none" class="w-[4.9375rem] will-change-transform md:w-[5.625rem]" viewBox="0 0 288 78"><path fill="currentColor" d="M30.6.398C13.77.398 0 14.168 0 30.998c0 16.83 13.77 30.6 30.6 30.6 16.83 0 30.6-13.685 30.6-30.6S47.515.398 30.6.398Zm0 50.235c-10.455 0-18.87-8.585-18.87-19.635s8.415-19.635 18.87-19.635c10.455 0 18.87 8.585 18.87 19.635S41.055 50.633 30.6 50.633ZM92.14 17.398c-5.526 0-10.88 2.21-13.686 5.95v-5.1h-11.05v59.5h11.05V56.243c2.805 3.485 7.99 5.355 13.685 5.355 11.9 0 21.25-9.35 21.25-22.1 0-12.75-9.35-22.1-21.25-22.1Zm-1.87 34.595c-6.29 0-11.9-4.93-11.9-12.495 0-7.565 5.61-12.495 11.9-12.495s11.899 4.93 11.899 12.495c0 7.565-5.61 12.495-11.9 12.495ZM139.401 17.398c-12.07 0-21.59 9.435-21.59 22.1 0 12.665 8.33 22.1 21.93 22.1 11.135 0 18.275-6.715 20.485-14.28h-10.795c-1.36 3.145-5.185 5.355-9.775 5.355-5.695 0-10.03-3.995-11.05-9.69h32.13v-4.335c0-11.56-8.075-21.25-21.335-21.25Zm-10.71 17.765c1.19-5.355 5.61-8.84 10.965-8.84 5.695 0 10.03 3.74 10.54 8.84h-21.505ZM190.145 17.398c-4.93 0-10.115 2.21-12.495 5.865v-5.015H166.6v42.5h11.05V37.883c0-6.63 3.57-10.965 9.35-10.965 5.355 0 8.245 4.08 8.245 9.775v24.055h11.05v-25.84c0-10.54-6.46-17.51-16.15-17.51ZM234.596 1.25l-24.055 59.5h11.815l5.1-13.005h27.37l5.1 13.005h11.985l-23.885-59.5h-13.43Zm-3.315 36.635 9.86-24.905 9.775 24.905h-19.635ZM287.636 1.25h-11.22v59.5h11.22V1.25Z"/></svg>