<svg xmlns="http://www.w3.org/2000/svg" width="102" height="68" viewBox="-3.438 -1.541 29.797 9.246"><path d="M2.438 0C1.097 0 0 1.097 0 2.438s1.097 2.438 2.438 2.438 2.438 -1.091 2.438 -2.438S3.786 0 2.438 0m0 4.003c-0.833 0 -1.504 -0.684 -1.504 -1.565s0.671 -1.565 1.504 -1.565 1.504 0.684 1.504 1.565c0 0.881 -0.671 1.565 -1.504 1.565M7.342 1.355c-0.44 0 -0.867 0.176 -1.091 0.474v-0.406h-0.881v4.741h0.881V4.45c0.224 0.278 0.637 0.427 1.091 0.427 0.948 0 1.693 -0.745 1.693 -1.761s-0.745 -1.761 -1.693 -1.761zM7.193 4.111c-0.501 0 -0.948 -0.393 -0.948 -0.996s0.447 -0.996 0.948 -0.996 0.948 0.393 0.948 0.996 -0.447 0.996 -0.948 0.996m3.915 -2.757c-0.962 0 -1.72 0.752 -1.72 1.761s0.664 1.761 1.748 1.761c0.887 0 1.456 -0.535 1.632 -1.138h-0.86c-0.108 0.251 -0.413 0.427 -0.779 0.427 -0.454 0 -0.799 -0.318 -0.881 -0.772h2.56V3.048c0 -0.921 -0.643 -1.693 -1.7 -1.693m-0.853 1.416c0.095 -0.427 0.447 -0.704 0.874 -0.704 0.454 0 0.799 0.298 0.84 0.704zm4.897 -1.416c-0.393 0 -0.806 0.176 -0.996 0.467v-0.4h-0.881v3.387h0.881V2.987c0 -0.528 0.284 -0.874 0.745 -0.874 0.427 0 0.657 0.325 0.657 0.779v1.917h0.881V2.75c0 -0.84 -0.515 -1.395 -1.287 -1.395M18.694 0.068 16.778 4.809h0.941l0.406 -1.036h2.181l0.406 1.036h0.955L19.765 0.068zm-0.264 2.919 0.786 -1.985 0.779 1.985zM22.921 0.068H22.027V4.809h0.894z"/></svg>