<svg xmlns="http://www.w3.org/2000/svg" width="102" height="68" viewBox="-3.438 -1.541 29.797 9.246"><path d="M2.438 0C1.097 0 0 1.097 0 2.438s1.097 2.438 2.438 2.438 2.438-1.091 2.438-2.438S3.786 0 2.438 0m0 4.003c-.833 0-1.504-.684-1.504-1.565S1.605.873 2.438.873s1.504.684 1.504 1.565c0 .881-.671 1.565-1.504 1.565m4.904-2.648c-.44 0-.867.176-1.091.474v-.406H5.37v4.741h.881V4.45c.224.278.637.427 1.091.427.948 0 1.693-.745 1.693-1.761S8.29 1.355 7.342 1.355zm-.149 2.756c-.501 0-.948-.393-.948-.996s.447-.996.948-.996.948.393.948.996-.447.996-.948.996m3.915-2.757c-.962 0-1.72.752-1.72 1.761s.664 1.761 1.748 1.761c.887 0 1.456-.535 1.632-1.138h-.86c-.108.251-.413.427-.779.427-.454 0-.799-.318-.881-.772h2.56v-.345c0-.921-.643-1.693-1.7-1.693m-.853 1.416a.878.878 0 0 1 .874-.704c.454 0 .799.298.84.704zm4.897-1.416c-.393 0-.806.176-.996.467v-.4h-.881v3.387h.881V2.987c0-.528.284-.874.745-.874.427 0 .657.325.657.779v1.917h.881V2.75c0-.84-.515-1.395-1.287-1.395M18.694.068l-1.916 4.741h.941l.406-1.036h2.181l.406 1.036h.955L19.765.068zm-.264 2.919.786-1.985.779 1.985zM22.921.068h-.894v4.741h.894z"/></svg>