<?xml version="1.0" encoding="UTF-8"?><svg xmlns="http://www.w3.org/2000/svg" version="1.2" viewBox="0 0 500.000000 500.000000" preserveAspectRatio="xMidYMid meet" baseProfile="tiny-ps"><title>SDW Solutions</title><g transform="translate(0.000000,500.000000) scale(0.100000,-0.100000)" fill="#000000" stroke="none"><path d="M2326 4784 c-504 -52 -1008 -294 -1314 -630 -228 -251 -372 -537 -427 -851 -17 -102 -20 -395 -5 -541 l10 -93 -53 -52 c-89 -90 -145 -223 -168 -402 -52 -413 112 -819 378 -937 35 -16 74 -22 148 -25 92 -4 116 -1 213 28 10 3 25 -30 51 -106 48 -138 86 -215 169 -335 125 -180 299 -329 496 -425 216 -106 375 -159 621 -210 364 -74 859 -74 1250 2 254 49 480 285 538 563 26 121 57 316 82 505 9 66 25 181 35 255 55 389 55 388 55 680 0 299 -7 372 -67 710 -19 110 -67 307 -82 341 -5 12 -1 18 18 23 46 11 140 114 164 179 76 203 -57 410 -331 517 -66 25 -94 42 -110 65 -11 16 -73 93 -138 171 -165 198 -311 312 -519 405 -216 96 -415 149 -640 169 -142 12 -209 11 -374 -6z m569 -162 c219 -43 455 -144 614 -262 73 -54 221 -197 258 -249 16 -23 16 -24 -8 -18 -126 32 -678 33 -904 2 -542 -73 -1118 -278 -1600 -570 -174 -105 -332 -218 -450 -322 l-98 -86 7 74 c13 129 78 361 133 473 133 273 355 514 625 682 236 146 564 261 848 298 19 2 134 2 255 1 166 -3 244 -9 320 -23z m735 -662 c194 -25 393 -82 507 -145 80 -45 148 -121 169 -190 16 -50 16 -56 0 -97 -9 -25 -32 -59 -50 -77 l-34 -33 -16 31 c-23 43 -75 75 -181 110 -378 123 -948 105 -1570 -50 -323 -81 -693 -234 -1005 -416 -86 -51 -355 -229 -455 -303 -38 -27 -46 -29 -150 -31 l-110 -3 -13 83 -14 83 29 30 c139 146 405 349 651 494 483 287 1108 483 1665 524 137 10 462 5 577 -10z m115 -486 c131 -19 274 -50 292 -66 32 -27 99 -206 129 -346 34 -159 34 -158 -21 -121 -202 136 -451 112 -625 -61 -79 -78 -123 -158 -144 -262 -20 -97 -20 -139 0 -236 52 -251 190 -398 421 -448 76 -16 88 -16 162 -2 98 20 190 64 261 125 l53 47 -7 -70 c-54 -545 -121 -1052 -163 -1224 -34 -139 -135 -295 -241 -373 -103 -76 -178 -96 -460 -121 -254 -23 -468 -21 -562 5 -212 58 -517 254 -707 453 -150 157 -298 395 -386 621 -115 298 -172 542 -273 1170 -14 88 -33 201 -42 251 l-18 91 126 75 c118 72 394 207 505 248 111 41 450 141 605 178 163 40 447 79 615 85 138 6 366 -4 480 -19z m-2436 -760 c10 -54 22 -119 25 -144 l7 -45 -18 31 c-27 47 -64 88 -119 129 -27 21 -49 39 -49 42 0 6 128 93 131 90 2 -2 12 -48 23 -103z m-401 -130 c69 -34 132 -109 187 -219 153 -311 130 -720 -50 -900 -52 -52 -101 -75 -162 -75 -148 0 -288 162 -354 410 -20 73 -23 110 -23 260 -1 154 2 185 22 255 69 238 223 347 380 269z m672 -1124 c66 -195 114 -301 203 -450 158 -263 298 -410 549 -577 64 -43 116 -78 115 -79 -5 -5 -231 58 -313 86 -109 38 -307 134 -392 191 -152 100 -322 297 -392 455 -41 90 -90 231 -90 256 0 12 22 44 49 73 79 84 134 208 153 347 l12 86 37 -146 c21 -81 52 -190 69 -242z"></path><path d="M2382 2970 c-108 -28 -184 -73 -256 -151 -173 -187 -204 -432 -85 -674 48 -98 142 -191 245 -241 l79 -39 140 0 140 0 87 43 c148 74 269 224 309 385 7 29 10 92 7 161 -4 112 -4 113 -56 219 -62 128 -124 194 -228 249 -129 68 -248 83 -382 48z"></path><path d="M3585 1289 c-371 -22 -560 -40 -582 -54 -26 -17 -38 -54 -29 -90 12 -47 31 -49 265 -31 119 9 276 20 349 25 150 10 164 16 164 75 0 39 -21 72 -50 78 -9 1 -62 0 -117 -3z"></path><path d="M744 2291 c-75 -46 -108 -129 -108 -276 -1 -199 85 -348 202 -349 68 -1 114 31 149 102 26 54 28 65 28 187 -1 119 -3 136 -28 194 -48 115 -98 161 -174 161 -21 0 -52 -9 -69 -19z m110 -152 c75 -89 70 -329 -8 -329 -88 0 -131 258 -58 343 21 24 37 21 66 -14z"></path></g></svg>